# xmcd
#
# Track frame offsets: 
#        150
#        15287
#        29120
#        41752
#        57247
#        68525
#        81472
#        93447
#        103950
#        113292
#
# Disc length: 1685 seconds
#
# Revision: 0
# Processed by: cddbd v1.5.2PL0 Copyright (c) Steve Scherf et al.
# Submitted via: ExactAudioCopy v1.0b3
#
DISCID=7b06930a
DTITLE=Jordanaires - Country Gospel Favorites (2004)
DYEAR=2004
DGENRE=Country Gospel
TTITLE0=Swing Low Sweet Chariot
TTITLE1=Leaning On The Everlasting Arms
TTITLE2=In The Garden
TTITLE3=When The Roll Is Called Up Yonder
TTITLE4=You Better Run
TTITLE5=Love Lifted Me
TTITLE6=I Shall Not Be Moved
TTITLE7=Canaan's Land
TTITLE8=I'm So Glad
TTITLE9=Sweet By And By
EXTD=
EXTT0=
EXTT1=
EXTT2=
EXTT3=
EXTT4=
EXTT5=
EXTT6=
EXTT7=
EXTT8=
EXTT9=
PLAYORDER=
